<svg xmlns="http://www.w3.org/2000/svg" width="100" height="85" viewBox="0 0 100 85">
   <path fill="none" stroke="white" stroke-width="1" stroke-linecap="round"
         stroke-dasharray="250"
         d="m 35.79,15.56 1.99,-5.19 c -6.83,2.33 -16.82,9.14 -20.28,15.57 -1.36,2.53 0.53,5.44 -1.01,7.58 -3.13,4.34 -9.62,7.65 -11.54,12.77 -1.54,4.11 5.65,10.65 9.28,11.18 l -1.2,-3.99 c 6.82,-1.72 12.65,-7.72 18.36,-11.54 3.28,-2.2 7.52,-3.64 9.98,-6.82 h -13.5 c 2.56,-2.17 5.96,-2.07 9.18,-2.46 6.04,-0.73 11.87,-1.15 17.96,-1.14 v 0.4 l -10.78,5.99 -1.12,8.78 -2.16,2.48 -2.7,-4.88 c -0.3,7 -3.72,11.77 -6.39,17.96 2.69,-0.49 5.77,-5.7 7.86,-5.34 2.28,0.4 -0.67,4.93 -1.15,5.74 -3.24,5.43 -7.23,10.47 -10.3,15.97 10.67,-3.07 19.93,-14.89 25.46,-23.95 2.23,-3.65 3.61,-9.19 6.87,-11.97 l -0.8,11.97 h 0.4 l 7.98,-17.96 h 0.4 l 0.4,14.37 c 1.63,-0.8 2.47,-2.07 3.42,-3.59 4.55,-7.23 1.08,-12.14 -1.43,-19.56 2.74,2.02 5.23,5.74 5.58,9.18 h 2 l 0.72,-7.15 1.54,-2.85 0.78,-4.53 3.75,-0.79 9.58,-2.24 v -0.4 l -18.68,-4.3 -9.58,-2.25 c -1.12,2.88 -3.63,5.08 -6.39,6.39 2.73,-3.56 4.39,-6.26 4.39,-10.78 l -6.79,3.8 -9.98,0.12 z">
      <animate attributeName="stroke-dashoffset" from="240" to="-240" dur="2s" fill="freeze" repeatCount="indefinite"/>
   </path>
</svg>