<svg width="50mm" height="13mm" version="1.1" viewBox="0 0 68 13" xmlns="http://www.w3.org/2000/svg">
 <g fill="none" stroke="#f0f">
  <g stroke-width=".2px">
   <path d="m3.334 2.9958c1.2872 0.11779 2.6293 0.83847 3.8592 0.44093 1.8806-0.60787 1.8686-0.55976-1.2589-1.1673-1.0599-0.20589-2.2225-0.70842-3.226-0.30979-0.37338 0.14833-0.98185 0.4738-0.8509 0.85362 0.16164 0.46887 0.98273 0.13736 1.4766 0.18255z"/>
   <path d="m3.334 9.6632c1.2872-0.11779 2.6293-0.83847 3.8592-0.44093 1.8806 0.60787 1.8686 0.55976-1.2589 1.1673-1.0599 0.20589-2.2225 0.70842-3.226 0.30979-0.37338-0.14833-0.98185-0.4738-0.8509-0.85362 0.16164-0.46887 0.98273-0.13736 1.4766-0.18255z"/>
   <path d="m6.9786 6.7656c-1.2872 0.11779-2.6293 0.83847-3.8592 0.44093-1.8806-0.60787-1.8686-0.55976 1.2589-1.1673 1.0599-0.20589 2.2225-0.70842 3.226-0.30979 0.37338 0.14833 0.98185 0.4738 0.8509 0.85362-0.16164 0.46887-0.98273 0.13736-1.4766 0.18255z"/>
   <path d="m9.9902 10.057c-0.98688-1.2934 0.32345-7.73 1.9885-8.1661s0.64538 0.021272 1.3121 1.405c0.66674 1.3837 2.1257 6.2399 1.0669 7.2149-1.0587 0.97501-0.72676 0.38995-1.3074-0.30489-0.58064-0.69484 0.36731-3.4733-0.20651-4.0853-0.57381-0.61206-0.27004-0.62557-0.93705-0.10823-0.66701 0.51735 0.13607 3.4929-0.56047 4.0832-0.69654 0.59027-0.36919 1.2549-1.3561-0.038497z"/>
  </g>
  <path transform="matrix(.12892 -.028729 .028729 .12892 4.4697 4.3027)" d="m61.139 16.264c-1.6161 1.6594-9.0203-0.21994-9.6494-2.4493-0.62906-2.2293 4.7006-7.7019 6.9458-7.132 2.2452 0.56989 4.3197 7.9218 2.7036 9.5813z" stroke-dashoffset=".2" stroke-linecap="square" stroke-linejoin="bevel" stroke-width="2.2px" style="paint-order:markers fill stroke"/>
  <g stroke-width=".2px">
   <path d="m22.292 4.0787c-0.5807 0.34805-1.9519-1.1832-3.0693-0.60803-1.1175 0.57521-2.2169 2.6821-1.8172 4.0205s2.2556 2.3206 3.3504 2.1277c1.0948-0.19287-3.3068-4.2479-0.54561-2.3526 0.50105 0.34392 2.1955-0.50715 2.3906 0.87088 0.19508 1.378 0.09581 2.2653-1.2518 2.6705-1.3476 0.40518-3.7903-0.59852-4.7487-2.0467-0.9584-1.4481-0.68414-4.0685-0.02839-5.2483 0.65575-1.1799 1.3368-1.3633 2.429-1.4921 1.0923-0.12875 3.2025 0.47327 3.5625 1.1655 0.36006 0.69219 0.30912 0.54465-0.27158 0.89271z"/>
   <path d="m24.727 3.9745c0.09018-1.4193-0.22501-2.1087 0.29075-2.3168s0.20815-0.56664 0.77986 0.62916-1.1015 5.8491 0 6.9506c1.1015 1.1015 1.8237-0.23715 2.3963 0s1.3006 0.051462 0.93474 0.93474c-0.36587 0.88328-3.1651 1.2519-4.4144 0-1.2494-1.2519-0.07738-4.7784 0.0128-6.1976z"/>
   <path d="m30.046 2.305c1.1289 5.4527-0.23363 5.4703 0.40884 7.6343 0.48704 1.6405 4.2782 1.482 5.1338 0 0.26417-0.45755-0.31044-1.1564-0.7925-1.3727-0.71839-0.32224-1.6726 0.93612-2.3131 0.47827-0.93849-0.67083-1.3948-2.795-0.434-3.4335 0.92083-0.61184 1.9149 2.2111 2.8723 1.6583 0.42787-0.24703 0.24703-1.0543 0-1.4822-0.54649-0.94655-2.2932-0.69292-2.8397-1.6395-0.17836-0.30893-0.28301-0.85302 0-1.0702 0.90379-0.6935 2.6077 1.7883 3.3012 0.88454 0.43882-0.57187-0.44808-1.5282-1.0812-1.8728-1.2476-0.67887-4.5095-1.0112-4.2556 0.21526z"/>
   <path d="m44.906 6.8123c0.53435 0.49788 1.7979 1.4662 1.4963 2.5917-0.3016 1.1256-2.2116 1.9995-3.4632 1.9995s-4.0497 1.2894-3.0405-1.7554c0.37914-1.1439 2.0105-4.9055 0-7.3721-2.0105-2.4665 1.1832-0.76452 2.303-0.61709s3.6362 0.92151 3.8041 2.1963-3.6967 1.9303-3.5667 2.7047 1.9327-0.2455 2.467 0.25237z"/>
   <path d="m41.96 2.9426c-0.39204 0.4493-0.0078 1.4232 0.51289 1.7138 0.41475 0.23151 1.0405-0.032941 1.3764-0.36881 0.21914-0.21914 0.39558-0.62966 0.24063-0.89804-0.17646-0.30565-0.67742-0.20103-1.0227-0.27404-0.36546-0.077266-0.86162-0.45435-1.1072-0.17289z"/>
   <path d="m44.557 10.074c0.54247-0.62169 0.01077-1.9692-0.70968-2.3714-0.57389-0.32034-1.4398 0.045581-1.9045 0.51032-0.30322 0.30322-0.54737 0.87126-0.33296 1.2426 0.24418 0.42293 0.93735 0.27817 1.4151 0.37918 0.50569 0.10691 1.1922 0.62869 1.5321 0.23923z"/>
   <path d="m47.262 5.3866c0.09018-1.4193-0.56146-2.1396-0.04569-2.3477 0.51576-0.20813 1.323-1.9479 1.8947-0.75207s-1.2837 5.9042-0.1822 7.0058c1.0195 0.96103 3.8975-0.1976 3.5132 0.87958-0.36587 0.88328-3.1651 1.2519-4.4144 0-1.2494-1.2519-0.85573-3.3663-0.76555-4.7855z"/>
   <path d="m52.464 2.9723c-0.0764-3.2809 1.843-0.79356 2.4796 0.38421s-1.4792 3.5099-0.74474 4.6468c1.0388 1.7993 2.1966 0.85132 2.8541-0.028274 0.84113-1.0577-0.93712-4.1851 0.175-4.9176s1.6302-2.6948 1.7994-0.30044 0.05108 6.6471-0.9047 7.3593c-2.3644 1.7619-4.3902 0.1947-4.3902 0.1947-1.3291-1.3737-1.1921-4.0578-1.2685-7.3386z"/>
   <path d="m60.486 2.305c1.1289 5.4527-0.23363 5.4703 0.40884 7.6343 0.48704 1.6405 4.2782 1.482 5.1338 0 0.26417-0.45755-0.31044-1.1564-0.7925-1.3727-0.71839-0.32224-1.6726 0.93612-2.3131 0.47827-0.93849-0.67083-1.3948-2.795-0.434-3.4335 0.92083-0.61184 1.9149 2.2111 2.8723 1.6583 0.42787-0.24703 0.24703-1.0543 0-1.4822-0.54649-0.94655-2.2932-0.69292-2.8397-1.6395-0.17836-0.30893-0.28301-0.85302 0-1.0702 0.90379-0.6935 2.6077 1.7883 3.3012 0.88454 0.43882-0.57187-0.44808-1.5282-1.0812-1.8728-1.2476-0.67887-4.5095-1.0112-4.2556 0.21526z"/>
  </g>
 </g>
</svg>
